<svg fill="none" height="15" viewBox="0 0 15 15" width="15" xmlns="http://www.w3.org/2000/svg">
    <g clip-path="url(#clip0)">
        <path
            d="M3.11999 0.0272811C2.17245 0.677927 1.91234 1.98642 2.56299 2.93413L5.90903 7.80709L4.65997 9.55648C3.5341 8.89055 2.06661 9.18552 1.29243 10.2701C0.475052 11.4153 0.740527 13.006 1.88557 13.8237C3.03068 14.6411 4.62169 14.3758 5.4394 13.2305C6.00045 12.4446 6.05108 11.4487 5.6577 10.6371L7.18734 8.49446L8.67738 10.6646C8.26942 11.4688 8.30183 12.4654 8.84821 13.2615C9.64484 14.4215 11.2306 14.7158 12.3904 13.9196C13.5504 13.123 13.8449 11.5372 13.0486 10.3774C12.2944 9.27903 10.8326 8.95733 9.69471 9.60236L8.47784 7.83042L11.9123 3.01966C12.5803 2.08401 12.344 0.770977 11.4085 0.10311L7.21027 5.98425L3.11999 0.0272811ZM4.69218 11.7568C4.68551 12.4861 4.08882 13.072 3.35948 13.0653C2.63014 13.0587 2.04425 12.462 2.05092 11.7326C2.0576 11.0031 2.65429 10.4174 3.38363 10.4241C4.11297 10.4308 4.69886 11.0273 4.69218 11.7568ZM12.2638 11.826C12.2571 12.5554 11.6604 13.1413 10.9311 13.1346C10.2017 13.1279 9.61586 12.5312 9.62253 11.8019C9.6292 11.0724 10.2259 10.4867 10.9552 10.4933C11.6846 10.5 12.2705 11.0965 12.2638 11.826Z"
            fill="#FF441F" />
    </g>
    <defs>
        <clipPath id="clip0">
            <rect fill="white" height="14.268" transform="translate(0 14.2673) rotate(-89.476)"
                width="14.268" />
        </clipPath>
    </defs>
</svg>
