<svg width="360" height="475" viewBox="0 0 360 475" fill="none" xmlns="http://www.w3.org/2000/svg">
<path d="M-7.82626 82.592L62.1425 85.2138L82.7284 151.918L25.1803 191.802L-30.0511 148.596L-7.82626 82.592Z" fill="#020E4F" fill-opacity="0.8"/>
<path d="M143.378 289.204L196.853 334.402L171.94 399.614L102.041 395.541L85.1887 327.473L143.378 289.204Z" fill="#5CC8E1" fill-opacity="0.8"/>
<path d="M143.378 289.204L196.853 334.402L171.94 399.614L102.041 395.541L85.1887 327.473L143.378 289.204Z" fill="#353E72"/>
<path d="M168.767 310.719L238.77 309.285L263.185 374.685L208.043 417.835L150.402 377.9L168.767 310.719Z" fill="#5CC8E1" fill-opacity="0.8"/>
<path d="M186.378 64.2038L239.853 109.402L214.94 174.614L145.041 170.541L128.189 102.473L186.378 64.2038Z" fill="#031050"/>
<path d="M-13.5114 407.317L-7.08296 337.594L60.6435 320.672L97.334 380.307L51.1844 433.103L-13.5114 407.317Z" fill="#2399D8" fill-opacity="0.8"/>
<path d="M148 81.5L196.5 31L260 60L251.5 129.5L182.5 142L148 81.5Z" fill="#020E4F" fill-opacity="0.8"/>
<path d="M16.166 341.919L46.8365 278.976L116.171 287.099L129.4 355.856L67.5615 388.919L16.166 341.919Z" fill="#020E4F" fill-opacity="0.8"/>
<path d="M273 434.5L321.5 384L385 413L376.5 482.5L307.5 495L273 434.5Z" fill="#020E4F" fill-opacity="0.8"/>
<path d="M233 292.5L281.5 242L345 271L336.5 340.5L267.5 353L233 292.5Z" fill="#020E4F" fill-opacity="0.8"/>
<path d="M148 288.5L196.5 238L260 267L251.5 336.5L182.5 349L148 288.5Z" fill="#020E4F" fill-opacity="0.8"/>
<path d="M178 238.5L226.5 188L290 217L281.5 286.5L212.5 299L178 238.5Z" fill="#020E4F" fill-opacity="0.8"/>
<path d="M204 348.5L252.5 298L316 327L307.5 396.5L238.5 409L204 348.5Z" fill="#020E4F" fill-opacity="0.8"/>
<path d="M200 426.5L248.5 376L312 405L303.5 474.5L234.5 487L200 426.5Z" fill="#020E4F" fill-opacity="0.8"/>
<path d="M170.364 390.053L240.35 387.961L265.378 453.129L210.644 496.795L152.63 457.403L170.364 390.053Z" fill="#020E4F" fill-opacity="0.8"/>
<path d="M170.364 390.053L240.35 387.961L265.378 453.129L210.644 496.795L152.63 457.403L170.364 390.053Z" fill="#020E4F" fill-opacity="0.8"/>
<path d="M54.8554 414.386L121.569 393.132L163.55 448.908L122.931 505.939L56.3229 484.016L54.8554 414.386Z" fill="#020E4F" fill-opacity="0.8"/>
<path d="M111.855 433.386L178.569 412.132L220.55 467.908L179.931 524.939L113.323 503.016L111.855 433.386Z" fill="#020E4F" fill-opacity="0.8"/>
<path d="M100.855 391.386L167.569 370.132L209.55 425.908L168.931 482.939L102.323 461.016L100.855 391.386Z" fill="#020E4F" fill-opacity="0.8"/>
<path d="M143.483 143.36L213.452 145.982L234.037 212.686L176.489 252.57L121.258 209.364L143.483 143.36Z" fill="#020E4F" fill-opacity="0.8"/>
<path d="M74.1737 110.592L144.142 113.214L164.728 179.918L107.18 219.802L51.9489 176.596L74.1737 110.592Z" fill="#020E4F" fill-opacity="0.8"/>
<path d="M1.17374 165.592L71.1425 168.214L91.7284 234.918L34.1803 274.802L-21.0511 231.596L1.17374 165.592Z" fill="#020E4F" fill-opacity="0.8"/>
<path d="M143.483 143.36L213.452 145.982L234.037 212.686L176.489 252.57L121.258 209.364L143.483 143.36Z" fill="#020E4F" fill-opacity="0.8"/>
<path d="M286 79.5L334.5 29L398 58L389.5 127.5L320.5 140L286 79.5Z" fill="#020E4F" fill-opacity="0.8"/>
<path d="M87.3835 116.93L90.3912 46.9772L157.208 26.7597L196.774 84.5269L153.264 139.519L87.3835 116.93Z" fill="#020E4F" fill-opacity="0.8"/>
<path d="M48 50.5L96.5 0L160 29L151.5 98.5L82.5 111L48 50.5Z" fill="#2399D8" fill-opacity="0.8"/>
<path d="M217 127.5L265.5 77L329 106L320.5 175.5L251.5 188L217 127.5Z" fill="#2399D8" fill-opacity="0.8"/>
<path d="M200 192.5L248.5 142L312 171L303.5 240.5L234.5 253L200 192.5Z" fill="#2399D8" fill-opacity="0.8"/>
<path d="M21 230.5L69.5 180L133 209L124.5 278.5L55.5 291L21 230.5Z" fill="#031050"/>
<path d="M94.5309 220.609L163.898 211.087L195.713 273.224L145.932 322.462L84.0591 289.462L94.5309 220.609Z" fill="#2399D8" fill-opacity="0.8"/>
<path d="M284.531 330.609L353.898 321.087L385.713 383.224L335.932 432.462L274.059 399.462L284.531 330.609Z" fill="#2399D8" fill-opacity="0.8"/>
<path d="M284.531 330.609L353.898 321.087L385.713 383.224L335.932 432.462L274.059 399.462L284.531 330.609Z" fill="#2399D8" fill-opacity="0.8"/>
<path d="M301.531 102.609L370.898 93.0868L402.713 155.224L352.932 204.462L291.059 171.462L301.531 102.609Z" fill="#2399D8" fill-opacity="0.8"/>
<path d="M-3.46914 400.609L65.8983 391.087L97.713 453.224L47.932 502.462L-13.9409 469.462L-3.46914 400.609Z" fill="#2399D8" fill-opacity="0.8"/>
<path d="M-3.46914 400.609L65.8983 391.087L97.713 453.224L47.932 502.462L-13.9409 469.462L-3.46914 400.609Z" fill="#2399D8" fill-opacity="0.8"/>
<path d="M94.5309 220.609L163.898 211.087L195.713 273.224L145.932 322.462L84.0591 289.462L94.5309 220.609Z" fill="#031050"/>
<path d="M-41 287.5L7.5 237L71 266L62.5 335.5L-6.5 348L-41 287.5Z" fill="#2399D8" fill-opacity="0.8"/>
<path d="M27 97.5L75.5 47L139 76L130.5 145.5L61.5 158L27 97.5Z" fill="#031050"/>
<path d="M287.378 11.2038L340.853 56.4023L315.94 121.614L246.041 117.541L229.189 49.4726L287.378 11.2038Z" fill="#5CC8E1" fill-opacity="0.8"/>
<path d="M333.378 167.204L386.853 212.402L361.94 277.614L292.041 273.541L275.189 205.473L333.378 167.204Z" fill="#5CC8E1" fill-opacity="0.8"/>
<path d="M302.242 245.974L372.051 251.37L389.974 318.839L330.888 356.408L277.415 311.044L302.242 245.974Z" fill="#5CC8E1" fill-opacity="0.8"/>
<path d="M197.56 96.9644L266.745 107.73L279.41 176.38L217.602 209.279L167.787 159.926L197.56 96.9644Z" fill="#5CC8E1" fill-opacity="0.8"/>
<path d="M80.3781 349.204L133.853 394.402L108.94 459.614L39.0411 455.541L22.1887 387.473L80.3781 349.204Z" fill="#041050"/>
<path d="M32.3781 8.20383L85.8533 53.4023L60.9403 118.614L-8.95895 114.541L-25.8113 46.4726L32.3781 8.20383Z" fill="#5CC8E1" fill-opacity="0.8"/>
<path d="M247.593 335.541L269.843 269.152L339.645 268.215L361.679 334.676L304.65 375.479L247.593 335.541Z" fill="#020E4F" fill-opacity="0.8"/>
</svg>
